ISO-10303-21;
HEADER;
/* Generated by software containing ST-Developer
 * from STEP Tools, Inc. (www.steptools.com) 
 */

FILE_DESCRIPTION(
/* description */ ('',
'CAx-IF Rec.Pracs.---Representation and Presentation of Product Manufa
cturing Information (PMI)---4.0---2014-10-13'),
/* implementation_level */ '2;1');

FILE_NAME(
/* name */ 'Ball Caster Wheel.step',
/* time_stamp */ '2025-01-05T20:11:28+05:30',
/* author */ (''),
/* organization */ (''),
/* preprocessor_version */ 'ST-DEVELOPER v20',
/* originating_system */ 'Autodesk Translation Framework v13.20.0.188',

/* authorisation */ '');

FILE_SCHEMA (('AP242_MANAGED_MODEL_BASED_3D_ENGINEERING_MIM_LF { 1 0 10303 442 1 1 4 }'));
ENDSEC;

DATA;
#10=MECHANICAL_DESIGN_GEOMETRIC_PRESENTATION_REPRESENTATION('',(#18,#19,
#20,#21),#851);
#11=SHAPE_REPRESENTATION_RELATIONSHIP('SRR','None',#858,#12);
#12=ADVANCED_BREP_SHAPE_REPRESENTATION('',(#22,#23,#24,#25),#850);
#13=(
BOUNDED_CURVE()
B_SPLINE_CURVE(5,(#739,#740,#741,#742,#743,#744,#745,#746,#747),
 .UNSPECIFIED.,.F.,.F.)
B_SPLINE_CURVE_WITH_KNOTS((6,1,1,1,6),(0.231257705720667,0.4,0.6,0.8,0.963716378810004),
 .UNSPECIFIED.)
CURVE()
GEOMETRIC_REPRESENTATION_ITEM()
RATIONAL_B_SPLINE_CURVE((1.,1.,1.,1.,1.,1.,1.,1.,1.))
REPRESENTATION_ITEM('')
);
#14=(
BOUNDED_CURVE()
B_SPLINE_CURVE(5,(#834,#835,#836,#837,#838,#839,#840,#841,#842),
 .UNSPECIFIED.,.F.,.F.)
B_SPLINE_CURVE_WITH_KNOTS((6,1,1,1,6),(0.0365231976950944,0.2,0.4,0.6,0.76351299710293),
 .UNSPECIFIED.)
CURVE()
GEOMETRIC_REPRESENTATION_ITEM()
RATIONAL_B_SPLINE_CURVE((1.,1.,1.,1.,1.,1.,1.,1.,1.))
REPRESENTATION_ITEM('')
);
#15=(
BOUNDED_SURFACE()
B_SPLINE_SURFACE(2,2,((#598,#599,#600,#601,#602,#603,#604,#605,#606),(#607,
#608,#609,#610,#611,#612,#613,#614,#615),(#616,#617,#618,#619,#620,#621,
#622,#623,#624),(#625,#626,#627,#628,#629,#630,#631,#632,#633),(#634,#635,
#636,#637,#638,#639,#640,#641,#642)),.UNSPECIFIED.,.F.,.T.,.F.)
B_SPLINE_SURFACE_WITH_KNOTS((3,2,3),(3,2,2,2,3),(-1.54181284121645,0.,1.54181284121645),
(-3.14159265358979,-1.5707963267949,0.,1.5707963267949,3.14159265358979),
 .UNSPECIFIED.)
GEOMETRIC_REPRESENTATION_ITEM()
RATIONAL_B_SPLINE_SURFACE(((1.,0.707106781186548,1.,0.707106781186548,1.,
0.707106781186548,1.,0.707106781186548,1.),(0.717279383453866,0.507193116045535,
0.717279383453866,0.507193116045535,0.717279383453866,0.507193116045535,
0.717279383453866,0.507193116045535,0.717279383453866),(1.,0.707106781186548,
1.,0.707106781186548,1.,0.707106781186548,1.,0.707106781186548,1.),(0.717279383453866,
0.507193116045534,0.717279383453866,0.507193116045534,0.717279383453866,
0.507193116045534,0.717279383453866,0.507193116045534,0.717279383453866),
(1.,0.707106781186548,1.,0.707106781186548,1.,0.707106781186548,1.,0.707106781186548,
1.)))
REPRESENTATION_ITEM('')
SURFACE()
);
#16=(
BOUNDED_SURFACE()
B_SPLINE_SURFACE(5,2,((#657,#658,#659,#660,#661,#662,#663,#664,#665),(#666,
#667,#668,#669,#670,#671,#672,#673,#674),(#675,#676,#677,#678,#679,#680,
#681,#682,#683),(#684,#685,#686,#687,#688,#689,#690,#691,#692),(#693,#694,
#695,#696,#697,#698,#699,#700,#701),(#702,#703,#704,#705,#706,#707,#708,
#709,#710),(#711,#712,#713,#714,#715,#716,#717,#718,#719),(#720,#721,#722,
#723,#724,#725,#726,#727,#728),(#729,#730,#731,#732,#733,#734,#735,#736,
#737)),.UNSPECIFIED.,.F.,.T.,.F.)
B_SPLINE_SURFACE_WITH_KNOTS((6,1,1,1,6),(3,2,2,2,3),(-0.963716378810004,
-0.8,-0.6,-0.4,-0.231257705720667),(0.,1.5707963267949,3.14159265358979,
4.71238898038469,6.28318530717959),.UNSPECIFIED.)
GEOMETRIC_REPRESENTATION_ITEM()
RATIONAL_B_SPLINE_SURFACE(((1.,0.707106781186548,1.,0.707106781186548,1.,
0.707106781186548,1.,0.707106781186548,1.),(1.,0.707106781186548,1.,0.707106781186548,
1.,0.707106781186548,1.,0.707106781186548,1.),(1.,0.707106781186548,1.,
0.707106781186548,1.,0.707106781186548,1.,0.707106781186548,1.),(1.,0.707106781186548,
1.,0.707106781186548,1.,0.707106781186548,1.,0.707106781186548,1.),(1.,
0.707106781186548,1.,0.707106781186548,1.,0.707106781186548,1.,0.707106781186548,
1.),(1.,0.707106781186548,1.,0.707106781186548,1.,0.707106781186548,1.,
0.707106781186548,1.),(1.,0.707106781186548,1.,0.707106781186548,1.,0.707106781186548,
1.,0.707106781186548,1.),(1.,0.707106781186548,1.,0.707106781186548,1.,
0.707106781186548,1.,0.707106781186548,1.),(1.,0.707106781186548,1.,0.707106781186548,
1.,0.707106781186548,1.,0.707106781186548,1.)))
REPRESENTATION_ITEM('')
SURFACE()
);
#17=(
BOUNDED_SURFACE()
B_SPLINE_SURFACE(5,2,((#752,#753,#754,#755,#756,#757,#758,#759,#760),(#761,
#762,#763,#764,#765,#766,#767,#768,#769),(#770,#771,#772,#773,#774,#775,
#776,#777,#778),(#779,#780,#781,#782,#783,#784,#785,#786,#787),(#788,#789,
#790,#791,#792,#793,#794,#795,#796),(#797,#798,#799,#800,#801,#802,#803,
#804,#805),(#806,#807,#808,#809,#810,#811,#812,#813,#814),(#815,#816,#817,
#818,#819,#820,#821,#822,#823),(#824,#825,#826,#827,#828,#829,#830,#831,
#832)),.UNSPECIFIED.,.F.,.T.,.F.)
B_SPLINE_SURFACE_WITH_KNOTS((6,1,1,1,6),(3,2,2,2,3),(-0.76351299710293,
-0.6,-0.4,-0.2,-0.0365231976950944),(0.,1.5707963267949,3.14159265358979,
4.71238898038469,6.28318530717959),.UNSPECIFIED.)
GEOMETRIC_REPRESENTATION_ITEM()
RATIONAL_B_SPLINE_SURFACE(((1.,0.707106781186548,1.,0.707106781186548,1.,
0.707106781186548,1.,0.707106781186548,1.),(1.,0.707106781186548,1.,0.707106781186548,
1.,0.707106781186548,1.,0.707106781186548,1.),(1.,0.707106781186548,1.,
0.707106781186548,1.,0.707106781186548,1.,0.707106781186548,1.),(1.,0.707106781186548,
1.,0.707106781186548,1.,0.707106781186548,1.,0.707106781186548,1.),(1.,
0.707106781186548,1.,0.707106781186548,1.,0.707106781186548,1.,0.707106781186548,
1.),(1.,0.707106781186548,1.,0.707106781186548,1.,0.707106781186548,1.,
0.707106781186548,1.),(1.,0.707106781186548,1.,0.707106781186548,1.,0.707106781186548,
1.,0.707106781186548,1.),(1.,0.707106781186548,1.,0.707106781186548,1.,
0.707106781186548,1.,0.707106781186548,1.),(1.,0.707106781186548,1.,0.707106781186548,
1.,0.707106781186548,1.,0.707106781186548,1.)))
REPRESENTATION_ITEM('')
SURFACE()
);
#18=STYLED_ITEM('',(#867),#22);
#19=STYLED_ITEM('',(#867),#23);
#20=STYLED_ITEM('',(#867),#24);
#21=STYLED_ITEM('',(#868),#25);
#22=MANIFOLD_SOLID_BREP('Body1',#349);
#23=MANIFOLD_SOLID_BREP('Body2',#350);
#24=MANIFOLD_SOLID_BREP('Body3',#351);
#25=MANIFOLD_SOLID_BREP('Body4',#352);
#26=FACE_BOUND('',#76,.T.);
#27=FACE_BOUND('',#81,.T.);
#28=FACE_BOUND('',#82,.T.);
#29=FACE_BOUND('',#83,.T.);
#30=FACE_BOUND('',#84,.T.);
#31=FACE_BOUND('',#88,.T.);
#32=FACE_BOUND('',#90,.T.);
#33=FACE_BOUND('',#91,.T.);
#34=FACE_BOUND('',#92,.T.);
#35=FACE_BOUND('',#93,.T.);
#36=FACE_BOUND('',#99,.T.);
#37=FACE_BOUND('',#103,.T.);
#38=PLANE('',#381);
#39=PLANE('',#390);
#40=PLANE('',#397);
#41=PLANE('',#398);
#42=PLANE('',#402);
#43=PLANE('',#403);
#44=PLANE('',#405);
#45=PLANE('',#412);
#46=TOROIDAL_SURFACE('',#375,6.04448918645028,1.5);
#47=TOROIDAL_SURFACE('',#384,5.58571374587373,1.423273770285);
#48=FACE_OUTER_BOUND('',#71,.T.);
#49=FACE_OUTER_BOUND('',#72,.T.);
#50=FACE_OUTER_BOUND('',#73,.T.);
#51=FACE_OUTER_BOUND('',#74,.T.);
#52=FACE_OUTER_BOUND('',#75,.T.);
#53=FACE_OUTER_BOUND('',#77,.T.);
#54=FACE_OUTER_BOUND('',#78,.T.);
#55=FACE_OUTER_BOUND('',#79,.T.);
#56=FACE_OUTER_BOUND('',#80,.T.);
#57=FACE_OUTER_BOUND('',#85,.T.);
#58=FACE_OUTER_BOUND('',#86,.T.);
#59=FACE_OUTER_BOUND('',#87,.T.);
#60=FACE_OUTER_BOUND('',#89,.T.);
#61=FACE_OUTER_BOUND('',#94,.T.);
#62=FACE_OUTER_BOUND('',#95,.T.);
#63=FACE_OUTER_BOUND('',#96,.T.);
#64=FACE_OUTER_BOUND('',#97,.T.);
#65=FACE_OUTER_BOUND('',#98,.T.);
#66=FACE_OUTER_BOUND('',#100,.T.);
#67=FACE_OUTER_BOUND('',#101,.T.);
#68=FACE_OUTER_BOUND('',#102,.T.);
#69=FACE_OUTER_BOUND('',#104,.T.);
#70=FACE_OUTER_BOUND('',#105,.T.);
#71=EDGE_LOOP('',(#230,#231,#232,#233));
#72=EDGE_LOOP('',(#234,#235,#236,#237));
#73=EDGE_LOOP('',(#238,#239,#240,#241));
#74=EDGE_LOOP('',(#242,#243,#244,#245,#246,#247));
#75=EDGE_LOOP('',(#248));
#76=EDGE_LOOP('',(#249));
#77=EDGE_LOOP('',(#250,#251,#252,#253,#254));
#78=EDGE_LOOP('',(#255,#256,#257,#258));
#79=EDGE_LOOP('',(#259,#260,#261,#262,#263));
#80=EDGE_LOOP('',(#264));
#81=EDGE_LOOP('',(#265));
#82=EDGE_LOOP('',(#266));
#83=EDGE_LOOP('',(#267));
#84=EDGE_LOOP('',(#268));
#85=EDGE_LOOP('',(#269,#270,#271,#272));
#86=EDGE_LOOP('',(#273,#274,#275,#276));
#87=EDGE_LOOP('',(#277));
#88=EDGE_LOOP('',(#278));
#89=EDGE_LOOP('',(#279));
#90=EDGE_LOOP('',(#280));
#91=EDGE_LOOP('',(#281));
#92=EDGE_LOOP('',(#282));
#93=EDGE_LOOP('',(#283));
#94=EDGE_LOOP('',(#284,#285,#286,#287));
#95=EDGE_LOOP('',(#288));
#96=EDGE_LOOP('',(#289));
#97=EDGE_LOOP('',(#290,#291));
#98=EDGE_LOOP('',(#292));
#99=EDGE_LOOP('',(#293));
#100=EDGE_LOOP('',(#294,#295,#296,#297,#298));
#101=EDGE_LOOP('',(#299,#300,#301,#302,#303));
#102=EDGE_LOOP('',(#304));
#103=EDGE_LOOP('',(#305));
#104=EDGE_LOOP('',(#306,#307,#308,#309,#310));
#105=EDGE_LOOP('',(#311,#312,#313,#314,#315));
#106=LINE('',#536,#116);
#107=LINE('',#542,#117);
#108=LINE('',#548,#118);
#109=LINE('',#569,#119);
#110=LINE('',#573,#120);
#111=LINE('',#582,#121);
#112=LINE('',#586,#122);
#113=LINE('',#594,#123);
#114=LINE('',#653,#124);
#115=LINE('',#847,#125);
#116=VECTOR('',#423,1.5);
#117=VECTOR('',#430,1.5);
#118=VECTOR('',#437,1.5);
#119=VECTOR('',#464,7.00000010430813);
#120=VECTOR('',#469,7.5);
#121=VECTOR('',#480,2.5);
#122=VECTOR('',#485,13.75);
#123=VECTOR('',#496,6.75);
#124=VECTOR('',#513,7.59999983012668);
#125=VECTOR('',#530,7.70031513696393);
#126=CIRCLE('',#367,1.5);
#127=CIRCLE('',#368,1.5);
#128=CIRCLE('',#370,1.5);
#129=CIRCLE('',#371,1.5);
#130=CIRCLE('',#373,1.5);
#131=CIRCLE('',#374,1.5);
#132=CIRCLE('',#376,6.11430447760441);
#133=CIRCLE('',#377,6.11430447760441);
#134=CIRCLE('',#378,1.5);
#135=CIRCLE('',#379,7.5);
#136=CIRCLE('',#380,7.5);
#137=CIRCLE('',#382,7.00000010430813);
#138=CIRCLE('',#383,6.99681901921509);
#139=CIRCLE('',#385,1.423273770285);
#140=CIRCLE('',#387,7.00000010430813);
#141=CIRCLE('',#389,7.5);
#142=CIRCLE('',#391,13.75);
#143=CIRCLE('',#393,2.5);
#144=CIRCLE('',#394,2.5);
#145=CIRCLE('',#396,13.75);
#146=CIRCLE('',#400,6.75);
#147=CIRCLE('',#401,6.75);
#148=CIRCLE('',#404,7.0029412301586);
#149=CIRCLE('',#406,7.70031513696398);
#150=CIRCLE('',#407,7.59999983012676);
#151=CIRCLE('',#409,7.59999983013832);
#152=CIRCLE('',#410,7.59999983013832);
#153=CIRCLE('',#411,14.1307339005223);
#154=CIRCLE('',#413,13.9744780613782);
#155=CIRCLE('',#414,7.70031513696388);
#156=CIRCLE('',#415,7.70031513696388);
#157=VERTEX_POINT('',#533);
#158=VERTEX_POINT('',#535);
#159=VERTEX_POINT('',#539);
#160=VERTEX_POINT('',#541);
#161=VERTEX_POINT('',#545);
#162=VERTEX_POINT('',#547);
#163=VERTEX_POINT('',#551);
#164=VERTEX_POINT('',#552);
#165=VERTEX_POINT('',#555);
#166=VERTEX_POINT('',#557);
#167=VERTEX_POINT('',#561);
#168=VERTEX_POINT('',#563);
#169=VERTEX_POINT('',#568);
#170=VERTEX_POINT('',#572);
#171=VERTEX_POINT('',#576);
#172=VERTEX_POINT('',#579);
#173=VERTEX_POINT('',#581);
#174=VERTEX_POINT('',#585);
#175=VERTEX_POINT('',#591);
#176=VERTEX_POINT('',#593);
#177=VERTEX_POINT('',#643);
#178=VERTEX_POINT('',#644);
#179=VERTEX_POINT('',#647);
#180=VERTEX_POINT('',#649);
#181=VERTEX_POINT('',#652);
#182=VERTEX_POINT('',#654);
#183=VERTEX_POINT('',#738);
#184=VERTEX_POINT('',#750);
#185=VERTEX_POINT('',#833);
#186=VERTEX_POINT('',#843);
#187=EDGE_CURVE('',#157,#157,#126,.T.);
#188=EDGE_CURVE('',#157,#158,#106,.T.);
#189=EDGE_CURVE('',#158,#158,#127,.T.);
#190=EDGE_CURVE('',#159,#159,#128,.T.);
#191=EDGE_CURVE('',#159,#160,#107,.T.);
#192=EDGE_CURVE('',#160,#160,#129,.T.);
#193=EDGE_CURVE('',#161,#161,#130,.T.);
#194=EDGE_CURVE('',#161,#162,#108,.T.);
#195=EDGE_CURVE('',#162,#162,#131,.T.);
#196=EDGE_CURVE('',#163,#164,#132,.T.);
#197=EDGE_CURVE('',#164,#163,#133,.T.);
#198=EDGE_CURVE('',#163,#165,#134,.T.);
#199=EDGE_CURVE('',#165,#166,#135,.T.);
#200=EDGE_CURVE('',#166,#165,#136,.T.);
#201=EDGE_CURVE('',#167,#167,#137,.T.);
#202=EDGE_CURVE('',#168,#168,#138,.T.);
#203=EDGE_CURVE('',#168,#164,#139,.T.);
#204=EDGE_CURVE('',#167,#169,#109,.T.);
#205=EDGE_CURVE('',#169,#169,#140,.T.);
#206=EDGE_CURVE('',#166,#170,#110,.T.);
#207=EDGE_CURVE('',#170,#170,#141,.T.);
#208=EDGE_CURVE('',#171,#171,#142,.T.);
#209=EDGE_CURVE('',#172,#172,#143,.T.);
#210=EDGE_CURVE('',#172,#173,#111,.T.);
#211=EDGE_CURVE('',#173,#173,#144,.T.);
#212=EDGE_CURVE('',#171,#174,#112,.T.);
#213=EDGE_CURVE('',#174,#174,#145,.T.);
#214=EDGE_CURVE('',#175,#175,#146,.T.);
#215=EDGE_CURVE('',#175,#176,#113,.T.);
#216=EDGE_CURVE('',#176,#176,#147,.T.);
#217=EDGE_CURVE('',#177,#178,#148,.T.);
#218=EDGE_CURVE('',#179,#179,#149,.T.);
#219=EDGE_CURVE('',#180,#180,#150,.T.);
#220=EDGE_CURVE('',#180,#181,#114,.T.);
#221=EDGE_CURVE('',#182,#181,#151,.T.);
#222=EDGE_CURVE('',#181,#182,#152,.T.);
#223=EDGE_CURVE('',#182,#183,#13,.T.);
#224=EDGE_CURVE('',#183,#183,#153,.T.);
#225=EDGE_CURVE('',#184,#184,#154,.T.);
#226=EDGE_CURVE('',#184,#185,#14,.T.);
#227=EDGE_CURVE('',#186,#185,#155,.T.);
#228=EDGE_CURVE('',#185,#186,#156,.T.);
#229=EDGE_CURVE('',#179,#186,#115,.T.);
#230=ORIENTED_EDGE('',*,*,#187,.F.);
#231=ORIENTED_EDGE('',*,*,#188,.T.);
#232=ORIENTED_EDGE('',*,*,#189,.F.);
#233=ORIENTED_EDGE('',*,*,#188,.F.);
#234=ORIENTED_EDGE('',*,*,#190,.F.);
#235=ORIENTED_EDGE('',*,*,#191,.T.);
#236=ORIENTED_EDGE('',*,*,#192,.F.);
#237=ORIENTED_EDGE('',*,*,#191,.F.);
#238=ORIENTED_EDGE('',*,*,#193,.F.);
#239=ORIENTED_EDGE('',*,*,#194,.T.);
#240=ORIENTED_EDGE('',*,*,#195,.F.);
#241=ORIENTED_EDGE('',*,*,#194,.F.);
#242=ORIENTED_EDGE('',*,*,#196,.T.);
#243=ORIENTED_EDGE('',*,*,#197,.T.);
#244=ORIENTED_EDGE('',*,*,#198,.T.);
#245=ORIENTED_EDGE('',*,*,#199,.T.);
#246=ORIENTED_EDGE('',*,*,#200,.T.);
#247=ORIENTED_EDGE('',*,*,#198,.F.);
#248=ORIENTED_EDGE('',*,*,#201,.T.);
#249=ORIENTED_EDGE('',*,*,#202,.F.);
#250=ORIENTED_EDGE('',*,*,#202,.T.);
#251=ORIENTED_EDGE('',*,*,#203,.T.);
#252=ORIENTED_EDGE('',*,*,#196,.F.);
#253=ORIENTED_EDGE('',*,*,#197,.F.);
#254=ORIENTED_EDGE('',*,*,#203,.F.);
#255=ORIENTED_EDGE('',*,*,#201,.F.);
#256=ORIENTED_EDGE('',*,*,#204,.T.);
#257=ORIENTED_EDGE('',*,*,#205,.F.);
#258=ORIENTED_EDGE('',*,*,#204,.F.);
#259=ORIENTED_EDGE('',*,*,#199,.F.);
#260=ORIENTED_EDGE('',*,*,#200,.F.);
#261=ORIENTED_EDGE('',*,*,#206,.T.);
#262=ORIENTED_EDGE('',*,*,#207,.F.);
#263=ORIENTED_EDGE('',*,*,#206,.F.);
#264=ORIENTED_EDGE('',*,*,#208,.T.);
#265=ORIENTED_EDGE('',*,*,#187,.T.);
#266=ORIENTED_EDGE('',*,*,#190,.T.);
#267=ORIENTED_EDGE('',*,*,#193,.T.);
#268=ORIENTED_EDGE('',*,*,#207,.T.);
#269=ORIENTED_EDGE('',*,*,#209,.F.);
#270=ORIENTED_EDGE('',*,*,#210,.T.);
#271=ORIENTED_EDGE('',*,*,#211,.T.);
#272=ORIENTED_EDGE('',*,*,#210,.F.);
#273=ORIENTED_EDGE('',*,*,#208,.F.);
#274=ORIENTED_EDGE('',*,*,#212,.T.);
#275=ORIENTED_EDGE('',*,*,#213,.T.);
#276=ORIENTED_EDGE('',*,*,#212,.F.);
#277=ORIENTED_EDGE('',*,*,#205,.T.);
#278=ORIENTED_EDGE('',*,*,#209,.T.);
#279=ORIENTED_EDGE('',*,*,#213,.F.);
#280=ORIENTED_EDGE('',*,*,#189,.T.);
#281=ORIENTED_EDGE('',*,*,#192,.T.);
#282=ORIENTED_EDGE('',*,*,#195,.T.);
#283=ORIENTED_EDGE('',*,*,#211,.F.);
#284=ORIENTED_EDGE('',*,*,#214,.F.);
#285=ORIENTED_EDGE('',*,*,#215,.T.);
#286=ORIENTED_EDGE('',*,*,#216,.T.);
#287=ORIENTED_EDGE('',*,*,#215,.F.);
#288=ORIENTED_EDGE('',*,*,#214,.T.);
#289=ORIENTED_EDGE('',*,*,#216,.F.);
#290=ORIENTED_EDGE('',*,*,#217,.T.);
#291=ORIENTED_EDGE('',*,*,#217,.F.);
#292=ORIENTED_EDGE('',*,*,#218,.T.);
#293=ORIENTED_EDGE('',*,*,#219,.F.);
#294=ORIENTED_EDGE('',*,*,#219,.T.);
#295=ORIENTED_EDGE('',*,*,#220,.T.);
#296=ORIENTED_EDGE('',*,*,#221,.F.);
#297=ORIENTED_EDGE('',*,*,#222,.F.);
#298=ORIENTED_EDGE('',*,*,#220,.F.);
#299=ORIENTED_EDGE('',*,*,#223,.F.);
#300=ORIENTED_EDGE('',*,*,#221,.T.);
#301=ORIENTED_EDGE('',*,*,#222,.T.);
#302=ORIENTED_EDGE('',*,*,#223,.T.);
#303=ORIENTED_EDGE('',*,*,#224,.F.);
#304=ORIENTED_EDGE('',*,*,#224,.T.);
#305=ORIENTED_EDGE('',*,*,#225,.F.);
#306=ORIENTED_EDGE('',*,*,#226,.F.);
#307=ORIENTED_EDGE('',*,*,#225,.T.);
#308=ORIENTED_EDGE('',*,*,#226,.T.);
#309=ORIENTED_EDGE('',*,*,#227,.F.);
#310=ORIENTED_EDGE('',*,*,#228,.F.);
#311=ORIENTED_EDGE('',*,*,#218,.F.);
#312=ORIENTED_EDGE('',*,*,#229,.T.);
#313=ORIENTED_EDGE('',*,*,#227,.T.);
#314=ORIENTED_EDGE('',*,*,#228,.T.);
#315=ORIENTED_EDGE('',*,*,#229,.F.);
#316=CYLINDRICAL_SURFACE('',#366,1.5);
#317=CYLINDRICAL_SURFACE('',#369,1.5);
#318=CYLINDRICAL_SURFACE('',#372,1.5);
#319=CYLINDRICAL_SURFACE('',#386,7.00000010430813);
#320=CYLINDRICAL_SURFACE('',#388,7.5);
#321=CYLINDRICAL_SURFACE('',#392,2.5);
#322=CYLINDRICAL_SURFACE('',#395,13.75);
#323=CYLINDRICAL_SURFACE('',#399,6.75);
#324=CYLINDRICAL_SURFACE('',#408,7.59999983012668);
#325=CYLINDRICAL_SURFACE('',#416,7.70031513696393);
#326=ADVANCED_FACE('',(#48),#316,.F.);
#327=ADVANCED_FACE('',(#49),#317,.F.);
#328=ADVANCED_FACE('',(#50),#318,.F.);
#329=ADVANCED_FACE('',(#51),#46,.T.);
#330=ADVANCED_FACE('',(#52,#26),#38,.T.);
#331=ADVANCED_FACE('',(#53),#47,.F.);
#332=ADVANCED_FACE('',(#54),#319,.F.);
#333=ADVANCED_FACE('',(#55),#320,.T.);
#334=ADVANCED_FACE('',(#56,#27,#28,#29,#30),#39,.T.);
#335=ADVANCED_FACE('',(#57),#321,.F.);
#336=ADVANCED_FACE('',(#58),#322,.T.);
#337=ADVANCED_FACE('',(#59,#31),#40,.T.);
#338=ADVANCED_FACE('',(#60,#32,#33,#34,#35),#41,.F.);
#339=ADVANCED_FACE('',(#61),#323,.T.);
#340=ADVANCED_FACE('',(#62),#42,.T.);
#341=ADVANCED_FACE('',(#63),#43,.F.);
#342=ADVANCED_FACE('',(#64),#15,.F.);
#343=ADVANCED_FACE('',(#65,#36),#44,.T.);
#344=ADVANCED_FACE('',(#66),#324,.F.);
#345=ADVANCED_FACE('',(#67),#16,.T.);
#346=ADVANCED_FACE('',(#68,#37),#45,.T.);
#347=ADVANCED_FACE('',(#69),#17,.T.);
#348=ADVANCED_FACE('',(#70),#325,.T.);
#349=CLOSED_SHELL('',(#326,#327,#328,#329,#330,#331,#332,#333,#334,#335,
#336,#337,#338));
#350=CLOSED_SHELL('',(#339,#340,#341));
#351=CLOSED_SHELL('',(#342));
#352=CLOSED_SHELL('',(#343,#344,#345,#346,#347,#348));
#353=DERIVED_UNIT_ELEMENT(#355,1.);
#354=DERIVED_UNIT_ELEMENT(#853,-3.);
#355=(
MASS_UNIT()
NAMED_UNIT(*)
SI_UNIT(.KILO.,.GRAM.)
);
#356=DERIVED_UNIT((#353,#354));
#357=MEASURE_REPRESENTATION_ITEM('density measure',
POSITIVE_RATIO_MEASURE(7850.),#356);
#358=PROPERTY_DEFINITION_REPRESENTATION(#363,#360);
#359=PROPERTY_DEFINITION_REPRESENTATION(#364,#361);
#360=REPRESENTATION('material name',(#362),#850);
#361=REPRESENTATION('density',(#357),#850);
#362=DESCRIPTIVE_REPRESENTATION_ITEM('Steel','Steel');
#363=PROPERTY_DEFINITION('material property','material name',#860);
#364=PROPERTY_DEFINITION('material property','density of part',#860);
#365=AXIS2_PLACEMENT_3D('',#531,#417,#418);
#366=AXIS2_PLACEMENT_3D('',#532,#419,#420);
#367=AXIS2_PLACEMENT_3D('',#534,#421,#422);
#368=AXIS2_PLACEMENT_3D('',#537,#424,#425);
#369=AXIS2_PLACEMENT_3D('',#538,#426,#427);
#370=AXIS2_PLACEMENT_3D('',#540,#428,#429);
#371=AXIS2_PLACEMENT_3D('',#543,#431,#432);
#372=AXIS2_PLACEMENT_3D('',#544,#433,#434);
#373=AXIS2_PLACEMENT_3D('',#546,#435,#436);
#374=AXIS2_PLACEMENT_3D('',#549,#438,#439);
#375=AXIS2_PLACEMENT_3D('',#550,#440,#441);
#376=AXIS2_PLACEMENT_3D('',#553,#442,#443);
#377=AXIS2_PLACEMENT_3D('',#554,#444,#445);
#378=AXIS2_PLACEMENT_3D('',#556,#446,#447);
#379=AXIS2_PLACEMENT_3D('',#558,#448,#449);
#380=AXIS2_PLACEMENT_3D('',#559,#450,#451);
#381=AXIS2_PLACEMENT_3D('',#560,#452,#453);
#382=AXIS2_PLACEMENT_3D('',#562,#454,#455);
#383=AXIS2_PLACEMENT_3D('',#564,#456,#457);
#384=AXIS2_PLACEMENT_3D('',#565,#458,#459);
#385=AXIS2_PLACEMENT_3D('',#566,#460,#461);
#386=AXIS2_PLACEMENT_3D('',#567,#462,#463);
#387=AXIS2_PLACEMENT_3D('',#570,#465,#466);
#388=AXIS2_PLACEMENT_3D('',#571,#467,#468);
#389=AXIS2_PLACEMENT_3D('',#574,#470,#471);
#390=AXIS2_PLACEMENT_3D('',#575,#472,#473);
#391=AXIS2_PLACEMENT_3D('',#577,#474,#475);
#392=AXIS2_PLACEMENT_3D('',#578,#476,#477);
#393=AXIS2_PLACEMENT_3D('',#580,#478,#479);
#394=AXIS2_PLACEMENT_3D('',#583,#481,#482);
#395=AXIS2_PLACEMENT_3D('',#584,#483,#484);
#396=AXIS2_PLACEMENT_3D('',#587,#486,#487);
#397=AXIS2_PLACEMENT_3D('',#588,#488,#489);
#398=AXIS2_PLACEMENT_3D('',#589,#490,#491);
#399=AXIS2_PLACEMENT_3D('',#590,#492,#493);
#400=AXIS2_PLACEMENT_3D('',#592,#494,#495);
#401=AXIS2_PLACEMENT_3D('',#595,#497,#498);
#402=AXIS2_PLACEMENT_3D('',#596,#499,#500);
#403=AXIS2_PLACEMENT_3D('',#597,#501,#502);
#404=AXIS2_PLACEMENT_3D('',#645,#503,#504);
#405=AXIS2_PLACEMENT_3D('',#646,#505,#506);
#406=AXIS2_PLACEMENT_3D('',#648,#507,#508);
#407=AXIS2_PLACEMENT_3D('',#650,#509,#510);
#408=AXIS2_PLACEMENT_3D('',#651,#511,#512);
#409=AXIS2_PLACEMENT_3D('',#655,#514,#515);
#410=AXIS2_PLACEMENT_3D('',#656,#516,#517);
#411=AXIS2_PLACEMENT_3D('',#748,#518,#519);
#412=AXIS2_PLACEMENT_3D('',#749,#520,#521);
#413=AXIS2_PLACEMENT_3D('',#751,#522,#523);
#414=AXIS2_PLACEMENT_3D('',#844,#524,#525);
#415=AXIS2_PLACEMENT_3D('',#845,#526,#527);
#416=AXIS2_PLACEMENT_3D('',#846,#528,#529);
#417=DIRECTION('axis',(0.,0.,1.));
#418=DIRECTION('refdir',(1.,0.,0.));
#419=DIRECTION('center_axis',(0.,0.,-1.));
#420=DIRECTION('ref_axis',(-1.,0.,0.));
#421=DIRECTION('center_axis',(0.,0.,-1.));
#422=DIRECTION('ref_axis',(-1.,0.,0.));
#423=DIRECTION('',(0.,0.,-1.));
#424=DIRECTION('center_axis',(0.,0.,1.));
#425=DIRECTION('ref_axis',(-1.,0.,0.));
#426=DIRECTION('center_axis',(0.,0.,-1.));
#427=DIRECTION('ref_axis',(-1.,0.,0.));
#428=DIRECTION('center_axis',(0.,0.,-1.));
#429=DIRECTION('ref_axis',(-1.,0.,0.));
#430=DIRECTION('',(0.,0.,-1.));
#431=DIRECTION('center_axis',(0.,0.,1.));
#432=DIRECTION('ref_axis',(-1.,0.,0.));
#433=DIRECTION('center_axis',(0.,0.,-1.));
#434=DIRECTION('ref_axis',(-1.,0.,0.));
#435=DIRECTION('center_axis',(0.,0.,-1.));
#436=DIRECTION('ref_axis',(-1.,0.,0.));
#437=DIRECTION('',(0.,0.,-1.));
#438=DIRECTION('center_axis',(0.,0.,1.));
#439=DIRECTION('ref_axis',(-1.,0.,0.));
#440=DIRECTION('center_axis',(0.,0.,1.));
#441=DIRECTION('ref_axis',(0.000420072038869446,0.999999911769737,0.));
#442=DIRECTION('center_axis',(0.,0.,-1.));
#443=DIRECTION('ref_axis',(1.,0.,0.));
#444=DIRECTION('center_axis',(0.,0.,-1.));
#445=DIRECTION('ref_axis',(1.,0.,0.));
#446=DIRECTION('center_axis',(0.999999911769737,-0.000420072038869569,0.));
#447=DIRECTION('ref_axis',(-0.000420072038869569,-0.999999911769737,0.));
#448=DIRECTION('center_axis',(0.,0.,1.));
#449=DIRECTION('ref_axis',(-1.,0.,0.));
#450=DIRECTION('center_axis',(0.,0.,1.));
#451=DIRECTION('ref_axis',(-1.,0.,0.));
#452=DIRECTION('center_axis',(0.,0.,-1.));
#453=DIRECTION('ref_axis',(-1.,0.,0.));
#454=DIRECTION('center_axis',(0.,0.,-1.));
#455=DIRECTION('ref_axis',(-1.,0.,0.));
#456=DIRECTION('center_axis',(0.,0.,-1.));
#457=DIRECTION('ref_axis',(1.,0.,0.));
#458=DIRECTION('center_axis',(0.,0.,-1.));
#459=DIRECTION('ref_axis',(-1.,0.,0.));
#460=DIRECTION('center_axis',(-1.22464679914735E-16,-1.,0.));
#461=DIRECTION('ref_axis',(1.,-1.22464679914735E-16,0.));
#462=DIRECTION('center_axis',(0.,0.,1.));
#463=DIRECTION('ref_axis',(-1.,0.,0.));
#464=DIRECTION('',(0.,0.,-1.));
#465=DIRECTION('center_axis',(0.,0.,1.));
#466=DIRECTION('ref_axis',(-1.,0.,0.));
#467=DIRECTION('center_axis',(0.,0.,1.));
#468=DIRECTION('ref_axis',(-1.,0.,0.));
#469=DIRECTION('',(0.,0.,-1.));
#470=DIRECTION('center_axis',(0.,0.,-1.));
#471=DIRECTION('ref_axis',(-1.,0.,0.));
#472=DIRECTION('center_axis',(0.,0.,1.));
#473=DIRECTION('ref_axis',(1.,0.,0.));
#474=DIRECTION('center_axis',(0.,0.,1.));
#475=DIRECTION('ref_axis',(1.,0.,0.));
#476=DIRECTION('center_axis',(0.,0.,1.));
#477=DIRECTION('ref_axis',(1.,0.,0.));
#478=DIRECTION('center_axis',(0.,0.,-1.));
#479=DIRECTION('ref_axis',(1.,0.,0.));
#480=DIRECTION('',(0.,0.,-1.));
#481=DIRECTION('center_axis',(0.,0.,-1.));
#482=DIRECTION('ref_axis',(1.,0.,0.));
#483=DIRECTION('center_axis',(0.,0.,1.));
#484=DIRECTION('ref_axis',(1.,0.,0.));
#485=DIRECTION('',(0.,0.,-1.));
#486=DIRECTION('center_axis',(0.,0.,1.));
#487=DIRECTION('ref_axis',(1.,0.,0.));
#488=DIRECTION('center_axis',(0.,0.,1.));
#489=DIRECTION('ref_axis',(1.,0.,0.));
#490=DIRECTION('center_axis',(0.,0.,1.));
#491=DIRECTION('ref_axis',(1.,0.,0.));
#492=DIRECTION('center_axis',(0.,0.,1.));
#493=DIRECTION('ref_axis',(-1.,0.,0.));
#494=DIRECTION('center_axis',(0.,0.,1.));
#495=DIRECTION('ref_axis',(-1.,0.,0.));
#496=DIRECTION('',(0.,0.,-1.));
#497=DIRECTION('center_axis',(0.,0.,1.));
#498=DIRECTION('ref_axis',(-1.,0.,0.));
#499=DIRECTION('center_axis',(0.,0.,1.));
#500=DIRECTION('ref_axis',(-1.,0.,0.));
#501=DIRECTION('center_axis',(0.,0.,1.));
#502=DIRECTION('ref_axis',(-1.,0.,0.));
#503=DIRECTION('center_axis',(-1.22464679914735E-16,-1.,0.));
#504=DIRECTION('ref_axis',(1.,-1.22464679914735E-16,0.));
#505=DIRECTION('center_axis',(0.,0.,-1.));
#506=DIRECTION('ref_axis',(-1.,0.,0.));
#507=DIRECTION('center_axis',(0.,0.,-1.));
#508=DIRECTION('ref_axis',(1.,0.,0.));
#509=DIRECTION('center_axis',(0.,0.,-1.));
#510=DIRECTION('ref_axis',(1.,0.,0.));
#511=DIRECTION('center_axis',(0.,0.,-1.));
#512=DIRECTION('ref_axis',(-1.,0.,0.));
#513=DIRECTION('',(0.,0.,1.));
#514=DIRECTION('center_axis',(0.,0.,-1.));
#515=DIRECTION('ref_axis',(1.,0.,0.));
#516=DIRECTION('center_axis',(0.,0.,-1.));
#517=DIRECTION('ref_axis',(1.,0.,0.));
#518=DIRECTION('center_axis',(0.,0.,-1.));
#519=DIRECTION('ref_axis',(1.,0.,0.));
#520=DIRECTION('center_axis',(0.,0.,-1.));
#521=DIRECTION('ref_axis',(-1.,0.,0.));
#522=DIRECTION('center_axis',(0.,0.,-1.));
#523=DIRECTION('ref_axis',(1.,0.,0.));
#524=DIRECTION('center_axis',(0.,0.,-1.));
#525=DIRECTION('ref_axis',(1.,0.,0.));
#526=DIRECTION('center_axis',(0.,0.,-1.));
#527=DIRECTION('ref_axis',(1.,0.,0.));
#528=DIRECTION('center_axis',(0.,0.,-1.));
#529=DIRECTION('ref_axis',(-1.,0.,0.));
#530=DIRECTION('',(0.,0.,1.));
#531=CARTESIAN_POINT('',(0.,0.,0.));
#532=CARTESIAN_POINT('Origin',(-7.24784450716211,7.24784450716211,1.));
#533=CARTESIAN_POINT('',(-5.74784450716211,7.24784450716211,1.));
#534=CARTESIAN_POINT('Origin',(-7.24784450716211,7.24784450716211,1.));
#535=CARTESIAN_POINT('',(-5.74784450716211,7.24784450716211,0.));
#536=CARTESIAN_POINT('',(-5.74784450716211,7.24784450716211,1.));
#537=CARTESIAN_POINT('Origin',(-7.24784450716211,7.24784450716211,0.));
#538=CARTESIAN_POINT('Origin',(7.24784450716211,7.24784450716211,1.));
#539=CARTESIAN_POINT('',(8.74784450716211,7.24784450716211,1.));
#540=CARTESIAN_POINT('Origin',(7.24784450716211,7.24784450716211,1.));
#541=CARTESIAN_POINT('',(8.74784450716211,7.24784450716211,0.));
#542=CARTESIAN_POINT('',(8.74784450716211,7.24784450716211,1.));
#543=CARTESIAN_POINT('Origin',(7.24784450716211,7.24784450716211,0.));
#544=CARTESIAN_POINT('Origin',(-0.0288103318083842,-10.249969816868,1.));
#545=CARTESIAN_POINT('',(1.47118966819162,-10.249969816868,1.));
#546=CARTESIAN_POINT('Origin',(-0.0288103318083842,-10.249969816868,1.));
#547=CARTESIAN_POINT('',(1.47118966819162,-10.249969816868,0.));
#548=CARTESIAN_POINT('',(1.47118966819162,-10.249969816868,1.));
#549=CARTESIAN_POINT('Origin',(-0.0288103318083842,-10.249969816868,0.));
#550=CARTESIAN_POINT('Origin',(0.,0.,15.6373868843522));
#551=CARTESIAN_POINT('',(-0.00256844834817662,-6.11430393813772,17.1357612785277));
#552=CARTESIAN_POINT('',(6.11430447760441,-7.48786340751057E-16,17.1357612785277));
#553=CARTESIAN_POINT('Origin',(0.,0.,17.1357612785277));
#554=CARTESIAN_POINT('Origin',(0.,0.,17.1357612785277));
#555=CARTESIAN_POINT('',(-0.00315054029152177,-7.49999933827303,16.));
#556=CARTESIAN_POINT('Origin',(-0.00253912089647723,-6.04448865314342,15.6373868843522));
#557=CARTESIAN_POINT('',(7.5,9.18485099360515E-16,16.));
#558=CARTESIAN_POINT('Origin',(0.,0.,16.));
#559=CARTESIAN_POINT('Origin',(0.,0.,16.));
#560=CARTESIAN_POINT('Origin',(0.,6.99681901921509,16.));
#561=CARTESIAN_POINT('',(7.00000010430813,8.57252772177209E-16,16.));
#562=CARTESIAN_POINT('Origin',(0.,0.,16.));
#563=CARTESIAN_POINT('',(6.99681901921509,-8.56863201609508E-16,16.));
#564=CARTESIAN_POINT('Origin',(0.,0.,16.));
#565=CARTESIAN_POINT('Origin',(0.,0.,15.8142848074887));
#566=CARTESIAN_POINT('Origin',(5.58571374587373,-6.84052645983764E-16,15.8142848074887));
#567=CARTESIAN_POINT('Origin',(0.,0.,1.));
#568=CARTESIAN_POINT('',(7.00000010430813,8.57252772177209E-16,1.));
#569=CARTESIAN_POINT('',(7.00000010430813,8.57252772177209E-16,1.));
#570=CARTESIAN_POINT('Origin',(0.,0.,1.));
#571=CARTESIAN_POINT('Origin',(0.,0.,1.));
#572=CARTESIAN_POINT('',(7.5,9.18485099360515E-16,1.));
#573=CARTESIAN_POINT('',(7.5,9.18485099360515E-16,1.));
#574=CARTESIAN_POINT('Origin',(0.,0.,1.));
#575=CARTESIAN_POINT('Origin',(0.,0.,1.));
#576=CARTESIAN_POINT('',(-13.75,-1.68388934882761E-15,1.));
#577=CARTESIAN_POINT('Origin',(0.,0.,1.));
#578=CARTESIAN_POINT('Origin',(0.,0.,0.));
#579=CARTESIAN_POINT('',(-2.5,-3.06161699786838E-16,1.));
#580=CARTESIAN_POINT('Origin',(0.,0.,1.));
#581=CARTESIAN_POINT('',(-2.5,-3.06161699786838E-16,0.));
#582=CARTESIAN_POINT('',(-2.5,-3.06161699786838E-16,0.));
#583=CARTESIAN_POINT('Origin',(0.,0.,0.));
#584=CARTESIAN_POINT('Origin',(0.,0.,0.));
#585=CARTESIAN_POINT('',(-13.75,-1.68388934882761E-15,0.));
#586=CARTESIAN_POINT('',(-13.75,-1.68388934882761E-15,0.));
#587=CARTESIAN_POINT('Origin',(0.,0.,0.));
#588=CARTESIAN_POINT('Origin',(0.,0.,1.));
#589=CARTESIAN_POINT('Origin',(0.,0.,0.));
#590=CARTESIAN_POINT('Origin',(0.,0.,1.));
#591=CARTESIAN_POINT('',(6.75,8.26636589424463E-16,2.));
#592=CARTESIAN_POINT('Origin',(0.,0.,2.));
#593=CARTESIAN_POINT('',(6.75,8.26636589424463E-16,1.));
#594=CARTESIAN_POINT('',(6.75,8.26636589424463E-16,1.));
#595=CARTESIAN_POINT('Origin',(0.,0.,1.));
#596=CARTESIAN_POINT('Origin',(0.,0.,2.));
#597=CARTESIAN_POINT('Origin',(0.,0.,1.));
#598=CARTESIAN_POINT('Ctrl Pts',(2.08166817117217E-16,0.,20.0000002980232));
#599=CARTESIAN_POINT('Ctrl Pts',(2.08166817117217E-16,-2.08166817117217E-16,
20.0000002980232));
#600=CARTESIAN_POINT('Ctrl Pts',(0.,-2.08166817117217E-16,20.0000002980232));
#601=CARTESIAN_POINT('Ctrl Pts',(-2.08166817117217E-16,-2.08166817117217E-16,
20.0000002980232));
#602=CARTESIAN_POINT('Ctrl Pts',(-2.08166817117217E-16,0.,20.0000002980232));
#603=CARTESIAN_POINT('Ctrl Pts',(-2.08166817117217E-16,2.08166817117217E-16,
20.0000002980232));
#604=CARTESIAN_POINT('Ctrl Pts',(0.,2.08166817117217E-16,20.0000002980232));
#605=CARTESIAN_POINT('Ctrl Pts',(2.08166817117217E-16,2.08166817117217E-16,
20.0000002980232));
#606=CARTESIAN_POINT('Ctrl Pts',(2.08166817117217E-16,0.,20.0000002980232));
#607=CARTESIAN_POINT('Ctrl Pts',(6.8,0.,19.8028573901951));
#608=CARTESIAN_POINT('Ctrl Pts',(6.8,-6.8,19.8028573901951));
#609=CARTESIAN_POINT('Ctrl Pts',(0.,-6.8,19.8028573901951));
#610=CARTESIAN_POINT('Ctrl Pts',(-6.8,-6.8,19.8028573901951));
#611=CARTESIAN_POINT('Ctrl Pts',(-6.8,0.,19.8028573901951));
#612=CARTESIAN_POINT('Ctrl Pts',(-6.8,6.8,19.8028573901951));
#613=CARTESIAN_POINT('Ctrl Pts',(0.,6.8,19.8028573901951));
#614=CARTESIAN_POINT('Ctrl Pts',(6.8,6.8,19.8028573901951));
#615=CARTESIAN_POINT('Ctrl Pts',(6.8,0.,19.8028573901951));
#616=CARTESIAN_POINT('Ctrl Pts',(6.8,0.,13.0000002458692));
#617=CARTESIAN_POINT('Ctrl Pts',(6.8,-6.8,13.0000002458692));
#618=CARTESIAN_POINT('Ctrl Pts',(0.,-6.8,13.0000002458692));
#619=CARTESIAN_POINT('Ctrl Pts',(-6.8,-6.8,13.0000002458692));
#620=CARTESIAN_POINT('Ctrl Pts',(-6.8,0.,13.0000002458692));
#621=CARTESIAN_POINT('Ctrl Pts',(-6.8,6.8,13.0000002458692));
#622=CARTESIAN_POINT('Ctrl Pts',(0.,6.8,13.0000002458692));
#623=CARTESIAN_POINT('Ctrl Pts',(6.8,6.8,13.0000002458692));
#624=CARTESIAN_POINT('Ctrl Pts',(6.8,0.,13.0000002458692));
#625=CARTESIAN_POINT('Ctrl Pts',(6.8,0.,6.19714310154319));
#626=CARTESIAN_POINT('Ctrl Pts',(6.8,-6.8,6.19714310154319));
#627=CARTESIAN_POINT('Ctrl Pts',(0.,-6.8,6.19714310154319));
#628=CARTESIAN_POINT('Ctrl Pts',(-6.8,-6.8,6.19714310154319));
#629=CARTESIAN_POINT('Ctrl Pts',(-6.8,0.,6.19714310154319));
#630=CARTESIAN_POINT('Ctrl Pts',(-6.8,6.8,6.19714310154319));
#631=CARTESIAN_POINT('Ctrl Pts',(0.,6.8,6.19714310154319));
#632=CARTESIAN_POINT('Ctrl Pts',(6.8,6.8,6.19714310154319));
#633=CARTESIAN_POINT('Ctrl Pts',(6.8,0.,6.19714310154319));
#634=CARTESIAN_POINT('Ctrl Pts',(2.08166817117217E-16,0.,6.00000019371509));
#635=CARTESIAN_POINT('Ctrl Pts',(2.08166817117217E-16,-2.08166817117217E-16,
6.00000019371509));
#636=CARTESIAN_POINT('Ctrl Pts',(0.,-2.08166817117217E-16,6.00000019371509));
#637=CARTESIAN_POINT('Ctrl Pts',(-2.08166817117217E-16,-2.08166817117217E-16,
6.00000019371509));
#638=CARTESIAN_POINT('Ctrl Pts',(-2.08166817117217E-16,0.,6.00000019371509));
#639=CARTESIAN_POINT('Ctrl Pts',(-2.08166817117217E-16,2.08166817117217E-16,
6.00000019371509));
#640=CARTESIAN_POINT('Ctrl Pts',(0.,2.08166817117217E-16,6.00000019371509));
#641=CARTESIAN_POINT('Ctrl Pts',(2.08166817117217E-16,2.08166817117217E-16,
6.00000019371509));
#642=CARTESIAN_POINT('Ctrl Pts',(2.08166817117217E-16,0.,6.00000019371509));
#643=CARTESIAN_POINT('',(0.,0.,6.00000019371509));
#644=CARTESIAN_POINT('',(0.,-1.8249290967276E-14,20.0000002980232));
#645=CARTESIAN_POINT('Origin',(-0.202941230158596,2.48531327928751E-17,
13.0000002458692));
#646=CARTESIAN_POINT('Origin',(-7.59999983012676,0.,11.000000163913));
#647=CARTESIAN_POINT('',(7.70031513696393,-9.43016628490879E-16,11.000000163913));
#648=CARTESIAN_POINT('Origin',(0.,0.,11.000000163913));
#649=CARTESIAN_POINT('',(7.59999983012668,-9.30731546548507E-16,11.000000163913));
#650=CARTESIAN_POINT('Origin',(0.,0.,11.000000163913));
#651=CARTESIAN_POINT('Origin',(0.,0.,11.7358039175));
#652=CARTESIAN_POINT('',(7.59999983012668,-9.30731546548507E-16,12.471607671087));
#653=CARTESIAN_POINT('',(7.59999983012668,-9.30731546548507E-16,11.7358039175));
#654=CARTESIAN_POINT('',(-7.59999983013832,0.,12.471607671087));
#655=CARTESIAN_POINT('Origin',(0.,0.,12.471607671087));
#656=CARTESIAN_POINT('Origin',(0.,0.,12.471607671087));
#657=CARTESIAN_POINT('Ctrl Pts',(-14.1307339005223,0.,-0.391798513465335));
#658=CARTESIAN_POINT('Ctrl Pts',(-14.1307339005223,14.1307339005223,-0.391798513465335));
#659=CARTESIAN_POINT('Ctrl Pts',(0.,14.1307339005223,-0.391798513465336));
#660=CARTESIAN_POINT('Ctrl Pts',(14.1307339005223,14.1307339005223,-0.391798513465336));
#661=CARTESIAN_POINT('Ctrl Pts',(14.1307339005223,0.,-0.391798513465336));
#662=CARTESIAN_POINT('Ctrl Pts',(14.1307339005223,-14.1307339005223,-0.391798513465336));
#663=CARTESIAN_POINT('Ctrl Pts',(0.,-14.1307339005223,-0.391798513465336));
#664=CARTESIAN_POINT('Ctrl Pts',(-14.1307339005223,-14.1307339005223,-0.391798513465335));
#665=CARTESIAN_POINT('Ctrl Pts',(-14.1307339005223,0.,-0.391798513465335));
#666=CARTESIAN_POINT('Ctrl Pts',(-13.9385460336771,0.,0.654520081487276));
#667=CARTESIAN_POINT('Ctrl Pts',(-13.9385460336771,13.9385460336771,0.654520081487276));
#668=CARTESIAN_POINT('Ctrl Pts',(0.,13.9385460336771,0.654520081487275));
#669=CARTESIAN_POINT('Ctrl Pts',(13.9385460336771,13.9385460336771,0.654520081487275));
#670=CARTESIAN_POINT('Ctrl Pts',(13.9385460336771,0.,0.654520081487275));
#671=CARTESIAN_POINT('Ctrl Pts',(13.9385460336771,-13.9385460336771,0.654520081487275));
#672=CARTESIAN_POINT('Ctrl Pts',(0.,-13.9385460336771,0.654520081487275));
#673=CARTESIAN_POINT('Ctrl Pts',(-13.9385460336771,-13.9385460336771,0.654520081487276));
#674=CARTESIAN_POINT('Ctrl Pts',(-13.9385460336771,0.,0.654520081487276));
#675=CARTESIAN_POINT('Ctrl Pts',(-13.4830301654321,0.,2.84518196944697));
#676=CARTESIAN_POINT('Ctrl Pts',(-13.4830301654321,13.4830301654321,2.84518196944697));
#677=CARTESIAN_POINT('Ctrl Pts',(0.,13.4830301654321,2.84518196944697));
#678=CARTESIAN_POINT('Ctrl Pts',(13.4830301654321,13.4830301654321,2.84518196944697));
#679=CARTESIAN_POINT('Ctrl Pts',(13.4830301654321,0.,2.84518196944697));
#680=CARTESIAN_POINT('Ctrl Pts',(13.4830301654321,-13.4830301654321,2.84518196944697));
#681=CARTESIAN_POINT('Ctrl Pts',(0.,-13.4830301654321,2.84518196944697));
#682=CARTESIAN_POINT('Ctrl Pts',(-13.4830301654321,-13.4830301654321,2.84518196944697));
#683=CARTESIAN_POINT('Ctrl Pts',(-13.4830301654321,0.,2.84518196944697));
#684=CARTESIAN_POINT('Ctrl Pts',(-12.6801491246855,0.,5.78597664236215));
#685=CARTESIAN_POINT('Ctrl Pts',(-12.6801491246855,12.6801491246855,5.78597664236215));
#686=CARTESIAN_POINT('Ctrl Pts',(0.,12.6801491246855,5.78597664236215));
#687=CARTESIAN_POINT('Ctrl Pts',(12.6801491246855,12.6801491246855,5.78597664236215));
#688=CARTESIAN_POINT('Ctrl Pts',(12.6801491246855,0.,5.78597664236215));
#689=CARTESIAN_POINT('Ctrl Pts',(12.6801491246855,-12.6801491246855,5.78597664236215));
#690=CARTESIAN_POINT('Ctrl Pts',(0.,-12.6801491246855,5.78597664236215));
#691=CARTESIAN_POINT('Ctrl Pts',(-12.6801491246855,-12.6801491246855,5.78597664236215));
#692=CARTESIAN_POINT('Ctrl Pts',(-12.6801491246855,0.,5.78597664236215));
#693=CARTESIAN_POINT('Ctrl Pts',(-11.4602687615697,0.,8.77652733246536));
#694=CARTESIAN_POINT('Ctrl Pts',(-11.4602687615697,11.4602687615697,8.77652733246536));
#695=CARTESIAN_POINT('Ctrl Pts',(0.,11.4602687615697,8.77652733246536));
#696=CARTESIAN_POINT('Ctrl Pts',(11.4602687615697,11.4602687615697,8.77652733246536));
#697=CARTESIAN_POINT('Ctrl Pts',(11.4602687615697,0.,8.77652733246536));
#698=CARTESIAN_POINT('Ctrl Pts',(11.4602687615697,-11.4602687615697,8.77652733246536));
#699=CARTESIAN_POINT('Ctrl Pts',(0.,-11.4602687615697,8.77652733246536));
#700=CARTESIAN_POINT('Ctrl Pts',(-11.4602687615697,-11.4602687615697,8.77652733246536));
#701=CARTESIAN_POINT('Ctrl Pts',(-11.4602687615697,0.,8.77652733246536));
#702=CARTESIAN_POINT('Ctrl Pts',(-10.0469697679131,0.,10.8489989417625));
#703=CARTESIAN_POINT('Ctrl Pts',(-10.0469697679131,10.0469697679131,10.8489989417625));
#704=CARTESIAN_POINT('Ctrl Pts',(0.,10.0469697679131,10.8489989417625));
#705=CARTESIAN_POINT('Ctrl Pts',(10.0469697679131,10.0469697679131,10.8489989417625));
#706=CARTESIAN_POINT('Ctrl Pts',(10.0469697679131,0.,10.8489989417625));
#707=CARTESIAN_POINT('Ctrl Pts',(10.0469697679131,-10.0469697679131,10.8489989417625));
#708=CARTESIAN_POINT('Ctrl Pts',(0.,-10.0469697679131,10.8489989417625));
#709=CARTESIAN_POINT('Ctrl Pts',(-10.0469697679131,-10.0469697679131,10.8489989417625));
#710=CARTESIAN_POINT('Ctrl Pts',(-10.0469697679131,0.,10.8489989417625));
#711=CARTESIAN_POINT('Ctrl Pts',(-8.83462702593716,0.,11.9049130062855));
#712=CARTESIAN_POINT('Ctrl Pts',(-8.83462702593716,8.83462702593716,11.9049130062855));
#713=CARTESIAN_POINT('Ctrl Pts',(0.,8.83462702593716,11.9049130062855));
#714=CARTESIAN_POINT('Ctrl Pts',(8.83462702593716,8.83462702593716,11.9049130062855));
#715=CARTESIAN_POINT('Ctrl Pts',(8.83462702593716,0.,11.9049130062855));
#716=CARTESIAN_POINT('Ctrl Pts',(8.83462702593716,-8.83462702593716,11.9049130062855));
#717=CARTESIAN_POINT('Ctrl Pts',(0.,-8.83462702593716,11.9049130062855));
#718=CARTESIAN_POINT('Ctrl Pts',(-8.83462702593716,-8.83462702593716,11.9049130062855));
#719=CARTESIAN_POINT('Ctrl Pts',(-8.83462702593716,0.,11.9049130062855));
#720=CARTESIAN_POINT('Ctrl Pts',(-7.9955751778583,0.,12.3324019854412));
#721=CARTESIAN_POINT('Ctrl Pts',(-7.9955751778583,7.9955751778583,12.3324019854412));
#722=CARTESIAN_POINT('Ctrl Pts',(0.,7.9955751778583,12.3324019854412));
#723=CARTESIAN_POINT('Ctrl Pts',(7.9955751778583,7.9955751778583,12.3324019854412));
#724=CARTESIAN_POINT('Ctrl Pts',(7.9955751778583,0.,12.3324019854412));
#725=CARTESIAN_POINT('Ctrl Pts',(7.9955751778583,-7.9955751778583,12.3324019854412));
#726=CARTESIAN_POINT('Ctrl Pts',(0.,-7.9955751778583,12.3324019854412));
#727=CARTESIAN_POINT('Ctrl Pts',(-7.9955751778583,-7.9955751778583,12.3324019854412));
#728=CARTESIAN_POINT('Ctrl Pts',(-7.9955751778583,0.,12.3324019854412));
#729=CARTESIAN_POINT('Ctrl Pts',(-7.59999983013832,0.,12.471607671087));
#730=CARTESIAN_POINT('Ctrl Pts',(-7.59999983013832,7.59999983013832,12.471607671087));
#731=CARTESIAN_POINT('Ctrl Pts',(0.,7.59999983013832,12.471607671087));
#732=CARTESIAN_POINT('Ctrl Pts',(7.59999983013832,7.59999983013832,12.471607671087));
#733=CARTESIAN_POINT('Ctrl Pts',(7.59999983013832,0.,12.471607671087));
#734=CARTESIAN_POINT('Ctrl Pts',(7.59999983013832,-7.59999983013832,12.471607671087));
#735=CARTESIAN_POINT('Ctrl Pts',(0.,-7.59999983013832,12.471607671087));
#736=CARTESIAN_POINT('Ctrl Pts',(-7.59999983013832,-7.59999983013832,12.471607671087));
#737=CARTESIAN_POINT('Ctrl Pts',(-7.59999983013832,0.,12.471607671087));
#738=CARTESIAN_POINT('',(-14.1307339005223,0.,-0.391798513465335));
#739=CARTESIAN_POINT('Ctrl Pts',(-7.59999983013832,0.,12.471607671087));
#740=CARTESIAN_POINT('Ctrl Pts',(-7.9955751778583,0.,12.3324019854412));
#741=CARTESIAN_POINT('Ctrl Pts',(-8.83462702593716,0.,11.9049130062855));
#742=CARTESIAN_POINT('Ctrl Pts',(-10.0469697679131,0.,10.8489989417625));
#743=CARTESIAN_POINT('Ctrl Pts',(-11.4602687615697,0.,8.77652733246536));
#744=CARTESIAN_POINT('Ctrl Pts',(-12.6801491246855,0.,5.78597664236215));
#745=CARTESIAN_POINT('Ctrl Pts',(-13.4830301654321,0.,2.84518196944697));
#746=CARTESIAN_POINT('Ctrl Pts',(-13.9385460336771,0.,0.654520081487276));
#747=CARTESIAN_POINT('Ctrl Pts',(-14.1307339005223,0.,-0.391798513465335));
#748=CARTESIAN_POINT('Origin',(0.,0.,-0.391798513465336));
#749=CARTESIAN_POINT('Origin',(-13.9744780613838,0.,-0.391798513473897));
#750=CARTESIAN_POINT('',(-13.9744780613782,0.,-0.391798513442796));
#751=CARTESIAN_POINT('Origin',(0.,0.,-0.391798513442796));
#752=CARTESIAN_POINT('Ctrl Pts',(-7.70031513696388,0.,12.2268380271331));
#753=CARTESIAN_POINT('Ctrl Pts',(-7.70031513696388,7.70031513696388,12.2268380271331));
#754=CARTESIAN_POINT('Ctrl Pts',(0.,7.70031513696388,12.2268380271331));
#755=CARTESIAN_POINT('Ctrl Pts',(7.70031513696388,7.70031513696388,12.2268380271331));
#756=CARTESIAN_POINT('Ctrl Pts',(7.70031513696388,0.,12.2268380271331));
#757=CARTESIAN_POINT('Ctrl Pts',(7.70031513696388,-7.70031513696388,12.2268380271331));
#758=CARTESIAN_POINT('Ctrl Pts',(0.,-7.70031513696388,12.2268380271331));
#759=CARTESIAN_POINT('Ctrl Pts',(-7.70031513696388,-7.70031513696388,12.2268380271331));
#760=CARTESIAN_POINT('Ctrl Pts',(-7.70031513696388,0.,12.2268380271331));
#761=CARTESIAN_POINT('Ctrl Pts',(-8.06463652525021,0.,12.0775738359882));
#762=CARTESIAN_POINT('Ctrl Pts',(-8.06463652525021,8.06463652525021,12.0775738359882));
#763=CARTESIAN_POINT('Ctrl Pts',(0.,8.06463652525021,12.0775738359882));
#764=CARTESIAN_POINT('Ctrl Pts',(8.06463652525021,8.06463652525021,12.0775738359882));
#765=CARTESIAN_POINT('Ctrl Pts',(8.06463652525021,0.,12.0775738359882));
#766=CARTESIAN_POINT('Ctrl Pts',(8.06463652525021,-8.06463652525021,12.0775738359882));
#767=CARTESIAN_POINT('Ctrl Pts',(0.,-8.06463652525021,12.0775738359882));
#768=CARTESIAN_POINT('Ctrl Pts',(-8.06463652525021,-8.06463652525021,12.0775738359882));
#769=CARTESIAN_POINT('Ctrl Pts',(-8.06463652525021,0.,12.0775738359882));
#770=CARTESIAN_POINT('Ctrl Pts',(-8.85421176250012,0.,11.638388756175));
#771=CARTESIAN_POINT('Ctrl Pts',(-8.85421176250012,8.85421176250012,11.638388756175));
#772=CARTESIAN_POINT('Ctrl Pts',(0.,8.85421176250012,11.638388756175));
#773=CARTESIAN_POINT('Ctrl Pts',(8.85421176250012,8.85421176250012,11.638388756175));
#774=CARTESIAN_POINT('Ctrl Pts',(8.85421176250012,0.,11.638388756175));
#775=CARTESIAN_POINT('Ctrl Pts',(8.85421176250012,-8.85421176250012,11.638388756175));
#776=CARTESIAN_POINT('Ctrl Pts',(0.,-8.85421176250012,11.638388756175));
#777=CARTESIAN_POINT('Ctrl Pts',(-8.85421176250012,-8.85421176250012,11.638388756175));
#778=CARTESIAN_POINT('Ctrl Pts',(-8.85421176250012,0.,11.638388756175));
#779=CARTESIAN_POINT('Ctrl Pts',(-10.0102506706478,0.,10.6013125933083));
#780=CARTESIAN_POINT('Ctrl Pts',(-10.0102506706478,10.0102506706478,10.6013125933083));
#781=CARTESIAN_POINT('Ctrl Pts',(0.,10.0102506706478,10.6013125933083));
#782=CARTESIAN_POINT('Ctrl Pts',(10.0102506706478,10.0102506706478,10.6013125933083));
#783=CARTESIAN_POINT('Ctrl Pts',(10.0102506706478,0.,10.6013125933083));
#784=CARTESIAN_POINT('Ctrl Pts',(10.0102506706478,-10.0102506706478,10.6013125933083));
#785=CARTESIAN_POINT('Ctrl Pts',(0.,-10.0102506706478,10.6013125933083));
#786=CARTESIAN_POINT('Ctrl Pts',(-10.0102506706478,-10.0102506706478,10.6013125933083));
#787=CARTESIAN_POINT('Ctrl Pts',(-10.0102506706478,0.,10.6013125933083));
#788=CARTESIAN_POINT('Ctrl Pts',(-11.3733095890424,0.,8.60163347276788));
#789=CARTESIAN_POINT('Ctrl Pts',(-11.3733095890424,11.3733095890424,8.60163347276788));
#790=CARTESIAN_POINT('Ctrl Pts',(0.,11.3733095890424,8.60163347276788));
#791=CARTESIAN_POINT('Ctrl Pts',(11.3733095890424,11.3733095890424,8.60163347276788));
#792=CARTESIAN_POINT('Ctrl Pts',(11.3733095890424,0.,8.60163347276788));
#793=CARTESIAN_POINT('Ctrl Pts',(11.3733095890424,-11.3733095890424,8.60163347276788));
#794=CARTESIAN_POINT('Ctrl Pts',(0.,-11.3733095890424,8.60163347276788));
#795=CARTESIAN_POINT('Ctrl Pts',(-11.3733095890424,-11.3733095890424,8.60163347276788));
#796=CARTESIAN_POINT('Ctrl Pts',(-11.3733095890424,0.,8.60163347276788));
#797=CARTESIAN_POINT('Ctrl Pts',(-12.5574444144835,0.,5.70752501887551));
#798=CARTESIAN_POINT('Ctrl Pts',(-12.5574444144835,12.5574444144835,5.70752501887551));
#799=CARTESIAN_POINT('Ctrl Pts',(0.,12.5574444144835,5.70752501887551));
#800=CARTESIAN_POINT('Ctrl Pts',(12.5574444144835,12.5574444144835,5.70752501887551));
#801=CARTESIAN_POINT('Ctrl Pts',(12.5574444144835,0.,5.70752501887551));
#802=CARTESIAN_POINT('Ctrl Pts',(12.5574444144835,-12.5574444144835,5.70752501887551));
#803=CARTESIAN_POINT('Ctrl Pts',(0.,-12.5574444144835,5.70752501887551));
#804=CARTESIAN_POINT('Ctrl Pts',(-12.5574444144835,-12.5574444144835,5.70752501887551));
#805=CARTESIAN_POINT('Ctrl Pts',(-12.5574444144835,0.,5.70752501887551));
#806=CARTESIAN_POINT('Ctrl Pts',(-13.3423914281432,0.,2.81296971580758));
#807=CARTESIAN_POINT('Ctrl Pts',(-13.3423914281432,13.3423914281432,2.81296971580758));
#808=CARTESIAN_POINT('Ctrl Pts',(0.,13.3423914281432,2.81296971580758));
#809=CARTESIAN_POINT('Ctrl Pts',(13.3423914281432,13.3423914281432,2.81296971580758));
#810=CARTESIAN_POINT('Ctrl Pts',(13.3423914281432,0.,2.81296971580758));
#811=CARTESIAN_POINT('Ctrl Pts',(13.3423914281432,-13.3423914281432,2.81296971580758));
#812=CARTESIAN_POINT('Ctrl Pts',(0.,-13.3423914281432,2.81296971580758));
#813=CARTESIAN_POINT('Ctrl Pts',(-13.3423914281432,-13.3423914281432,2.81296971580758));
#814=CARTESIAN_POINT('Ctrl Pts',(-13.3423914281432,0.,2.81296971580758));
#815=CARTESIAN_POINT('Ctrl Pts',(-13.7871178958064,0.,0.645022407581335));
#816=CARTESIAN_POINT('Ctrl Pts',(-13.7871178958064,13.7871178958064,0.645022407581335));
#817=CARTESIAN_POINT('Ctrl Pts',(0.,13.7871178958064,0.645022407581335));
#818=CARTESIAN_POINT('Ctrl Pts',(13.7871178958064,13.7871178958064,0.645022407581335));
#819=CARTESIAN_POINT('Ctrl Pts',(13.7871178958064,0.,0.645022407581335));
#820=CARTESIAN_POINT('Ctrl Pts',(13.7871178958064,-13.7871178958064,0.645022407581335));
#821=CARTESIAN_POINT('Ctrl Pts',(0.,-13.7871178958064,0.645022407581335));
#822=CARTESIAN_POINT('Ctrl Pts',(-13.7871178958064,-13.7871178958064,0.645022407581335));
#823=CARTESIAN_POINT('Ctrl Pts',(-13.7871178958064,0.,0.645022407581335));
#824=CARTESIAN_POINT('Ctrl Pts',(-13.9744780613782,0.,-0.391798513442796));
#825=CARTESIAN_POINT('Ctrl Pts',(-13.9744780613782,13.9744780613782,-0.391798513442796));
#826=CARTESIAN_POINT('Ctrl Pts',(0.,13.9744780613782,-0.391798513442796));
#827=CARTESIAN_POINT('Ctrl Pts',(13.9744780613782,13.9744780613782,-0.391798513442796));
#828=CARTESIAN_POINT('Ctrl Pts',(13.9744780613782,0.,-0.391798513442796));
#829=CARTESIAN_POINT('Ctrl Pts',(13.9744780613782,-13.9744780613782,-0.391798513442796));
#830=CARTESIAN_POINT('Ctrl Pts',(0.,-13.9744780613782,-0.391798513442796));
#831=CARTESIAN_POINT('Ctrl Pts',(-13.9744780613782,-13.9744780613782,-0.391798513442796));
#832=CARTESIAN_POINT('Ctrl Pts',(-13.9744780613782,0.,-0.391798513442796));
#833=CARTESIAN_POINT('',(-7.70031513696388,0.,12.2268380271331));
#834=CARTESIAN_POINT('Ctrl Pts',(-13.9744780613782,0.,-0.391798513442796));
#835=CARTESIAN_POINT('Ctrl Pts',(-13.7871178958064,0.,0.645022407581335));
#836=CARTESIAN_POINT('Ctrl Pts',(-13.3423914281432,0.,2.81296971580758));
#837=CARTESIAN_POINT('Ctrl Pts',(-12.5574444144835,0.,5.70752501887551));
#838=CARTESIAN_POINT('Ctrl Pts',(-11.3733095890424,0.,8.60163347276788));
#839=CARTESIAN_POINT('Ctrl Pts',(-10.0102506706478,0.,10.6013125933083));
#840=CARTESIAN_POINT('Ctrl Pts',(-8.85421176250012,0.,11.638388756175));
#841=CARTESIAN_POINT('Ctrl Pts',(-8.06463652525021,0.,12.0775738359882));
#842=CARTESIAN_POINT('Ctrl Pts',(-7.70031513696388,0.,12.2268380271331));
#843=CARTESIAN_POINT('',(7.70031513696393,-9.43016628490879E-16,12.2268380271331));
#844=CARTESIAN_POINT('Origin',(0.,0.,12.2268380271331));
#845=CARTESIAN_POINT('Origin',(0.,0.,12.2268380271331));
#846=CARTESIAN_POINT('Origin',(0.,0.,11.613419095523));
#847=CARTESIAN_POINT('',(7.70031513696393,-9.43016628490879E-16,11.613419095523));
#848=UNCERTAINTY_MEASURE_WITH_UNIT(LENGTH_MEASURE(0.01),#852,
'DISTANCE_ACCURACY_VALUE',
'Maximum model space distance between geometric entities at asserted c
onnectivities');
#849=UNCERTAINTY_MEASURE_WITH_UNIT(LENGTH_MEASURE(0.01),#852,
'DISTANCE_ACCURACY_VALUE',
'Maximum model space distance between geometric entities at asserted c
onnectivities');
#850=(
GEOMETRIC_REPRESENTATION_CONTEXT(3)
GLOBAL_UNCERTAINTY_ASSIGNED_CONTEXT((#848))
GLOBAL_UNIT_ASSIGNED_CONTEXT((#852,#854,#855))
REPRESENTATION_CONTEXT('','3D')
);
#851=(
GEOMETRIC_REPRESENTATION_CONTEXT(3)
GLOBAL_UNCERTAINTY_ASSIGNED_CONTEXT((#849))
GLOBAL_UNIT_ASSIGNED_CONTEXT((#852,#854,#855))
REPRESENTATION_CONTEXT('','3D')
);
#852=(
LENGTH_UNIT()
NAMED_UNIT(*)
SI_UNIT(.MILLI.,.METRE.)
);
#853=(
LENGTH_UNIT()
NAMED_UNIT(*)
SI_UNIT($,.METRE.)
);
#854=(
NAMED_UNIT(*)
PLANE_ANGLE_UNIT()
SI_UNIT($,.RADIAN.)
);
#855=(
NAMED_UNIT(*)
SI_UNIT($,.STERADIAN.)
SOLID_ANGLE_UNIT()
);
#856=SHAPE_DEFINITION_REPRESENTATION(#857,#858);
#857=PRODUCT_DEFINITION_SHAPE('',$,#860);
#858=SHAPE_REPRESENTATION('',(#365),#850);
#859=PRODUCT_DEFINITION_CONTEXT('part definition',#864,'design');
#860=PRODUCT_DEFINITION('Ball Caster Wheel','Ball Caster Wheel v0',#861,
#859);
#861=PRODUCT_DEFINITION_FORMATION('',$,#866);
#862=PRODUCT_RELATED_PRODUCT_CATEGORY('Ball Caster Wheel v0',
'Ball Caster Wheel v0',(#866));
#863=APPLICATION_PROTOCOL_DEFINITION('international standard',
'ap242_managed_model_based_3d_engineering',2011,#864);
#864=APPLICATION_CONTEXT('Managed model based 3d engineering');
#865=PRODUCT_CONTEXT('part definition',#864,'mechanical');
#866=PRODUCT('Ball Caster Wheel','Ball Caster Wheel v0',$,(#865));
#867=PRESENTATION_STYLE_ASSIGNMENT((#869));
#868=PRESENTATION_STYLE_ASSIGNMENT((#870));
#869=SURFACE_STYLE_USAGE(.BOTH.,#871);
#870=SURFACE_STYLE_USAGE(.BOTH.,#872);
#871=SURFACE_SIDE_STYLE('',(#873));
#872=SURFACE_SIDE_STYLE('',(#874));
#873=SURFACE_STYLE_FILL_AREA(#875);
#874=SURFACE_STYLE_FILL_AREA(#876);
#875=FILL_AREA_STYLE('Steel - Satin',(#877));
#876=FILL_AREA_STYLE('Aluminum - Anodized Rough (Red)',(#878));
#877=FILL_AREA_STYLE_COLOUR('Steel - Satin',#879);
#878=FILL_AREA_STYLE_COLOUR('Aluminum - Anodized Rough (Red)',#880);
#879=COLOUR_RGB('Steel - Satin',0.627450980392157,0.627450980392157,0.627450980392157);
#880=COLOUR_RGB('Aluminum - Anodized Rough (Red)',0.854901960784314,0.349019607843137,
0.349019607843137);
ENDSEC;
END-ISO-10303-21;
